<svg width="47" height="57" viewBox="0 0 47 57" fill="none" xmlns="http://www.w3.org/2000/svg">
<path d="M29.1249 1H6.62499C5.13315 1 3.70241 1.57946 2.64752 2.61091C1.59263 3.64236 1 5.04131 1 6.5V50.5C1 51.9587 1.59263 53.3576 2.64752 54.3891C3.70241 55.4205 5.13315 56 6.62499 56H40.3749C41.8668 56 43.2975 55.4205 44.3524 54.3891C45.4073 53.3576 45.9999 51.9587 45.9999 50.5V17.5L29.1249 1Z" stroke="black" stroke-width="2" stroke-linecap="round" stroke-linejoin="round"/>
<path d="M29.125 1V17.5H46" stroke="black" stroke-width="2" stroke-linecap="round" stroke-linejoin="round"/>
<path d="M34.75 31.25H12.25" stroke="black" stroke-width="2" stroke-linecap="round" stroke-linejoin="round"/>
<path d="M34.75 42.25H12.25" stroke="black" stroke-width="2" stroke-linecap="round" stroke-linejoin="round"/>
<path d="M17.875 20.25H15.0625H12.25" stroke="black" stroke-width="2" stroke-linecap="round" stroke-linejoin="round"/>
</svg>
