<svg width="53" height="53" viewBox="0 0 53 53" fill="none" xmlns="http://www.w3.org/2000/svg">
<path d="M46.9 12.3333H6.1C3.28335 12.3333 1 14.8703 1 17.9999V46.3333C1 49.4629 3.28335 51.9999 6.1 51.9999H46.9C49.7167 51.9999 52 49.4629 52 46.3333V17.9999C52 14.8703 49.7167 12.3333 46.9 12.3333Z" stroke="black" stroke-width="2" stroke-linecap="round" stroke-linejoin="round"/>
<path d="M36.2629 52V6.66667C36.2629 5.16377 35.7256 3.72243 34.7692 2.65973C33.8127 1.59702 32.5155 1 31.1629 1H20.9629C19.6103 1 18.3131 1.59702 17.3567 2.65973C16.4002 3.72243 15.8629 5.16377 15.8629 6.66667V52" stroke="black" stroke-width="2" stroke-linecap="round" stroke-linejoin="round"/>
</svg>
