<svg width="70" height="70" viewBox="0 0 70 70" fill="none" xmlns="http://www.w3.org/2000/svg">
<path d="M61.3886 40.5542C60.9298 45.5189 59.0666 50.2503 56.0168 54.1948C52.9671 58.1392 48.8571 61.1336 44.1678 62.8274C39.4784 64.5212 34.4036 64.8445 29.5372 63.7594C24.6708 62.6743 20.214 60.2258 16.6885 56.7002C13.1629 53.1746 10.7143 48.7179 9.62919 43.8515C8.5441 38.985 8.86738 33.9102 10.5612 29.2209C12.2551 24.5315 15.2494 20.4215 19.1938 17.3718C23.1383 14.3221 27.8697 12.4588 32.8345 12C29.9277 15.9324 28.529 20.7776 28.8927 25.6541C29.2563 30.5307 31.3582 35.1148 34.8161 38.5726C38.2739 42.0304 42.8579 44.1323 47.7345 44.4959C52.6111 44.8596 57.4562 43.4609 61.3886 40.5542V40.5542Z" stroke="#222329" stroke-width="2" stroke-linecap="round" stroke-linejoin="round"/>
</svg>
